<svg aria-hidden="true" style="position: absolute; width: 0; height: 0; overflow: hidden;" version="1.1" xmlns="http://www.w3.org/2000/svg" xmlns:xlink="http://www.w3.org/1999/xlink">
<defs>
<symbol id="courses-icon-opt" viewBox="0 0 32 32">
<path fill="none" stroke="#036" stroke-linejoin="miter" stroke-linecap="butt" stroke-miterlimit="4" stroke-width="1.6" d="M8 12l8 8 8-8"></path>
</symbol>
<symbol id="icon-career-opt" viewBox="0 0 33 32">
<path fill="#343434" d="M23.58 12.671c0.096-0.332 0.165-0.67 0.207-1.011 0.006-0.111 0.010-0.241 0.010-0.373s-0.004-0.261-0.011-0.39l0.001 0.018c0.016-0.109 0.025-0.234 0.025-0.361 0-0.548-0.17-1.056-0.461-1.475l0.006 0.008c-0.372-0.534-0.917-0.926-1.552-1.097l-0.019-0.004c-0.281-0.031-0.608-0.049-0.938-0.049-1.415 0-2.753 0.328-3.943 0.911l0.053-0.023c-1.253 0.564-2.311 1.356-3.164 2.332l-0.009 0.011c-0.982 1.107-1.916 2.318-2.766 3.592l-0.076 0.122c-0.007-0-0.015-0.001-0.023-0.001-0.084 0-0.162 0.025-0.227 0.068l0.002-0.001c-0.615 0.399-1.322 0.746-2.070 1.004l-0.069 0.021c-0.726 0.25-1.491 0.385-2.263 0.399-0.622-0.081-1.164-0.188-1.694-0.327l0.094 0.021c-0.112-0.018-0.241-0.029-0.372-0.029-0.256 0-0.503 0.040-0.735 0.113l0.017-0.005c-0.419 0.167-0.775 0.416-1.060 0.73l-0.002 0.002c-0.335 0.39-0.64 0.803-0.911 1.238-0.631 0.741-1.108 1.634-1.369 2.615l-0.011 0.047c-0 0.004-0 0.008-0 0.013 0 0.409 0.113 0.791 0.309 1.117l-0.005-0.010c0.201 0.34 0.492 0.625 0.842 0.823l1.462 0.905c0.073 0.052 0.163 0.084 0.261 0.084 0.024 0 0.048-0.002 0.072-0.006l-0.003 0c0.119-0.019 0.221-0.081 0.29-0.171l0.001-0.001c0.048-0.068 0.077-0.153 0.077-0.244 0-0.027-0.002-0.053-0.007-0.079l0 0.003c-0.022-0.116-0.088-0.213-0.179-0.277l-0.001-0.001-1.38-0.972c-0.483-0.413-0.648-0.759-0.607-1.091 0.068-0.261 0.19-0.505 0.359-0.719 0.193-0.266 0.428-0.532 0.663-0.825 0.304 0.366 0.616 0.696 0.946 1.006l0.006 0.006c0.159 0.159 0.334 0.302 0.524 0.426 0.182 0.135 0.376 0.255 0.58 0.359 0.455 0.253 0.924 0.466 1.379 0.692l-2.759 3.886c-0.044 0.061-0.071 0.137-0.071 0.219 0 0.023 0.002 0.046 0.006 0.068l-0-0.002c0.020 0.103 0.079 0.19 0.16 0.247l0.001 0.001c0.063 0.047 0.142 0.075 0.228 0.075s0.165-0.028 0.228-0.076l-0.001 0.001c-0.004 0.019-0.006 0.041-0.006 0.064 0 0.062 0.017 0.119 0.046 0.169l-0.001-0.002c0.040 0.070 0.105 0.125 0.183 0.155 0.435 0.468 0.886 0.903 1.358 1.312l0.022 0.018c0.235 0.168 0.479 0.323 0.731 0.466 0.25 0.145 0.513 0.27 0.787 0.372 0.637 0.248 1.298 0.436 1.972 0.559 0.045 0.016 0.097 0.025 0.151 0.025 0.071 0 0.138-0.016 0.198-0.044l-0.003 0.001c0.107-0.050 0.19-0.137 0.231-0.245l0.001-0.003c0.013-0.038 0.020-0.081 0.020-0.126 0-0.072-0.019-0.14-0.051-0.2l0.001 0.002c-0.056-0.1-0.147-0.174-0.256-0.208l-0.003-0.001c-0.594-0.293-1.104-0.652-1.655-0.985s-0.732-0.453-1.104-0.652c-0.662-0.333-1.38-0.586-2.028-0.919-0.050-0.028-0.109-0.045-0.173-0.045s-0.123 0.017-0.174 0.046l0.002-0.001 2.414-3.114c0.022 0.053 0.055 0.098 0.096 0.133l0 0c0.538 0.466 0.994 0.998 1.518 1.464 0.36 0.319 0.742 0.612 1.145 0.878 0.646 0.415 1.388 0.783 2.171 1.067l0.078 0.025c0.107 0.040 0.225 0.040 0.332 0l-0.235 0.293c-0.648 0.919-1.421 1.77-2.028 2.542-0.078 0.076-0.127 0.182-0.127 0.299v0c0 0.112 0.046 0.22 0.127 0.299 0.085 0.080 0.199 0.124 0.318 0.124s0.232-0.044 0.318-0.124c0.373-0.386 0.758-0.838 1.172-1.331-0.1 0.066-0.166 0.178-0.166 0.306 0 0.028 0.003 0.056 0.009 0.083l-0-0.002c0.012 0.051 0.033 0.095 0.061 0.134l-0.001-0.001c0.325 0.704 0.793 1.293 1.37 1.749l0.010 0.008c0.337 0.254 0.725 0.47 1.14 0.628l0.032 0.011c0.533 0.211 1.166 0.395 1.821 0.521l0.069 0.011c0.318 0.106 2.497-2.395 2.538-2.449 0.379-0.468 0.658-1.032 0.795-1.65l0.005-0.027c0.011-0.082 0.018-0.178 0.018-0.274 0-0.26-0.047-0.508-0.133-0.738l0.005 0.015c-0.166-0.506-0.524-1.025-0.621-1.451-0.219-0.718-0.345-1.544-0.345-2.399 0-0.022 0-0.044 0-0.067l-0 0.003c-0.001-0.044-0.001-0.096-0.001-0.147 0-0.837 0.137-1.643 0.389-2.395l-0.015 0.053c0.003-0.016 0.005-0.034 0.005-0.053s-0.002-0.037-0.006-0.055l0 0.002c1.135-1.114 2.209-2.277 3.223-3.491l0.061-0.076c0.964-1.155 1.701-2.536 2.12-4.049l0.018-0.077zM17.482 10.168c0.962-0.493 2.099-0.782 3.303-0.782 0.207 0 0.412 0.009 0.614 0.025l-0.027-0.002c0.579 0.146 0.938 0.613 0.965 1.544 0.027 0.226 0.027 0.454 0 0.679-0.038 0.283-0.087 0.526-0.148 0.764l0.010-0.046c-0.237 0.964-0.607 1.812-1.096 2.576l0.020-0.034c0.027-0.341 0.027-0.684 0-1.025-0.015-0.484-0.121-0.939-0.299-1.355l0.009 0.024c-0.205-0.432-0.5-0.792-0.861-1.068l-0.007-0.005c-0.36-0.275-0.793-0.473-1.265-0.561l-0.019-0.003c-0.235-0.036-0.506-0.057-0.781-0.057-0.833 0-1.622 0.188-2.328 0.523l0.033-0.014c0.55-0.496 1.185-0.897 1.876-1.185zM5.369 20.045c-0.165-0.152-0.34-0.294-0.524-0.426-0.18-0.132-0.369-0.252-0.566-0.359-0.338-0.193-0.76-0.403-1.193-0.591l-0.090-0.035c0.19-0.285 0.402-0.556 0.635-0.811 0.14-0.15 0.308-0.272 0.497-0.36 0.058-0.013 0.125-0.020 0.193-0.020s0.135 0.007 0.199 0.021l-0.006-0.001c0.556 0.111 1.199 0.179 1.856 0.187l0.007 0c0.963-0.119 1.839-0.382 2.645-0.768l-0.051 0.022c0.29-0.133 0.566-0.293 0.841-0.453l-3.353 4.659c-0.372-0.36-0.704-0.719-1.090-1.065zM11.729 25.689c-0.593-0.437-1.115-0.873-1.608-1.339l0.008 0.008c-0.358-0.293-0.717-0.599-1.117-0.865-0.62-0.398-1.336-0.777-2.085-1.095l-0.095-0.036h-0.124l4.787-6.149c1.131-1.534 2.243-2.879 3.424-4.159l-0.030 0.033v-0.040c0.041 0.094 0.116 0.166 0.209 0.202l0.003 0.001c0.043 0.017 0.093 0.027 0.145 0.027 0.055 0 0.108-0.011 0.156-0.032l-0.003 0.001c0.458-0.137 0.984-0.216 1.529-0.216 0.337 0 0.667 0.030 0.988 0.088l-0.034-0.005c0.372 0.054 0.708 0.176 1.006 0.353l-0.013-0.007c0.29 0.143 0.529 0.366 0.69 0.639 0.215 0.351 0.355 0.74 0.414 1.145 0.060 0.441 0.087 0.886 0.082 1.331-0.002 0.016-0.004 0.035-0.004 0.054 0 0.070 0.017 0.135 0.048 0.193l-0.001-0.002c0.041 0.077 0.102 0.139 0.176 0.18l0.002 0.001c-1.27 1.677-2.87 3.194-4.139 4.765s-2.759 3.433-4.208 5.323c0.004-0.020 0.006-0.042 0.006-0.066 0-0.061-0.015-0.119-0.042-0.169l0.001 0.002c-0.039-0.073-0.098-0.13-0.17-0.166l-0.002-0.001zM15.743 30.733c-0.052 0.074-0.082 0.166-0.082 0.265 0 0 0 0.001 0 0.001v-0c-0.593-0.32-1.2-0.718-1.835-1.118-0.214-0.135-0.435-0.259-0.662-0.372-0.221-0.134-0.456-0.227-0.676-0.36-0.288-0.169-0.537-0.358-0.76-0.573l0.001 0.001c-0.058-0.081-0.146-0.137-0.247-0.154l-0.002-0c-0.020-0.004-0.044-0.006-0.068-0.006-0.082 0-0.159 0.025-0.223 0.068l0.001-0.001 0.938-1.145 0.759-0.892c0 0.102 0.049 0.194 0.123 0.252l0.001 0.001c0.303 0.399 0.552 0.825 0.883 1.211 0.137 0.168 0.29 0.324 0.455 0.466 0.166 0.139 0.341 0.268 0.525 0.386 0.394 0.267 0.847 0.52 1.32 0.735l0.059 0.024c0.071 0.045 0.157 0.072 0.249 0.072 0.024 0 0.048-0.002 0.071-0.005l-0.003 0c-0.235 0.413-0.552 0.799-0.828 1.145zM17.123 28.869l-0.138 0.2c-0.030-0.102-0.088-0.188-0.165-0.253l-0.001-0.001c-0.372-0.346-0.663-0.732-1.008-1.091-0.226-0.243-0.47-0.47-0.731-0.679-0.429-0.306-0.922-0.606-1.434-0.872l-0.070-0.033c-0.073-0.054-0.166-0.087-0.266-0.087-0.028 0-0.055 0.003-0.082 0.007l0.003-0c1.284-1.53 2.566-3.101 3.642-4.326-0.095 0.306-0.177 0.675-0.23 1.053l-0.004 0.039c-0.048 0.344-0.076 0.74-0.076 1.144 0 0.608 0.063 1.201 0.182 1.774l-0.010-0.056c0.125 0.465 0.483 1.038 0.69 1.57 0.067 0.119 0.105 0.252 0.11 0.387-0.035 0.459-0.185 0.877-0.42 1.234l0.006-0.010z"></path>
<path fill="#343434" d="M26.133 17.835c0.773-1.091 1.545-2.169 2.194-3.314 0.398-0.685 0.783-1.492 1.105-2.33l0.040-0.119c0.471-1.555 0.585-3.19 0.331-4.792-0.487-2.606-1.079-4.841-1.815-7.010l0.105 0.355c-0.024-0.090-0.079-0.164-0.152-0.213l-0.001-0.001c-0.062-0.042-0.138-0.067-0.221-0.067-0.014 0-0.028 0.001-0.042 0.002l0.002-0c-0.016-0.093-0.061-0.174-0.126-0.234l-0-0c-0.066-0.061-0.151-0.101-0.244-0.112l-0.002-0c-1.628 0.047-3.25 0.199-4.857 0.453-1.119 0.182-2.215 0.476-3.27 0.879-1.112 0.459-2.071 1.017-2.941 1.686l0.030-0.022c-1.316 1.071-2.496 2.177-3.595 3.359l-0.020 0.022c-0.704 0.745-1.448 1.478-2.138 2.236-0.472 0.492-0.924 1.017-1.347 1.565l-0.033 0.045c-0.065 0.070-0.105 0.163-0.105 0.266v0c0.001 0.172 0.112 0.318 0.267 0.37l0.003 0.001c0.039 0.013 0.084 0.021 0.13 0.021 0.093 0 0.178-0.030 0.247-0.082l-0.001 0.001c0.052-0.039 0.093-0.090 0.12-0.148l0.001-0.002c0.443-0.516 0.894-0.985 1.369-1.428l0.011-0.010c0.758-0.692 1.572-1.331 2.331-2.023 1.1-1.047 2.273-2.053 3.497-2.998l0.104-0.077c0.759-0.59 1.621-1.11 2.541-1.525l0.080-0.032c0.93-0.417 1.9-0.743 2.898-0.972 1.313-0.307 2.908-0.561 4.535-0.709l0.142-0.010c0.451 1.796 0.853 4.027 1.12 6.298l0.025 0.264c0.040 0.332 0.063 0.716 0.063 1.106 0 1.104-0.185 2.166-0.525 3.155l0.020-0.068c-0.327 0.889-0.67 1.635-1.065 2.349l0.044-0.086c-0.593 1.131-1.255 2.223-1.945 3.314-0.529 0.867-1.039 1.601-1.586 2.305l0.041-0.055c-0.573 0.772-1.133 1.448-1.727 2.094l0.016-0.018c-0.079 0.078-0.128 0.186-0.129 0.306v0c0 0.114 0.046 0.224 0.129 0.306 0.080 0.076 0.189 0.123 0.309 0.123 0 0 0.001 0 0.001 0h-0c0 0 0.001 0 0.001 0 0.12 0 0.229-0.047 0.309-0.123l-0 0c0.689-0.652 1.333-1.325 1.943-2.028l0.030-0.035c0.607-0.718 1.186-1.438 1.753-2.236z"></path>
<path fill="#036" d="M32.024 14.641c-0.235-0.865-0.579-1.717-0.828-2.463-0.031-0.099-0.097-0.178-0.183-0.226l-0.002-0.001c-0.057-0.032-0.126-0.051-0.199-0.051-0.035 0-0.069 0.004-0.102 0.013l0.003-0.001c-0.1 0.025-0.182 0.087-0.234 0.17l-0.001 0.002c-0.033 0.054-0.053 0.119-0.053 0.189 0 0.033 0.004 0.065 0.013 0.095l-0.001-0.003c0.165 0.758 0.427 1.623 0.566 2.475 0.039 0.23 0.062 0.495 0.062 0.765s-0.022 0.535-0.066 0.793l0.004-0.028c-0.069 0.409-0.194 0.776-0.368 1.113l0.010-0.021c-0.276 0.585-0.621 1.131-0.939 1.69-0.641 1.223-1.309 2.268-2.055 3.252l0.041-0.057c-1.131 1.584-2.346 3.114-3.491 4.698-0.051 0.070-0.082 0.157-0.082 0.252 0 0.143 0.070 0.269 0.177 0.346l0.001 0.001c0.074 0.056 0.167 0.089 0.268 0.089 0.021 0 0.042-0.001 0.062-0.004l-0.002 0c0.119-0.016 0.222-0.077 0.292-0.164l0.001-0.001c1.477-1.744 3.132-3.381 4.512-5.204 0.56-0.74 1.095-1.576 1.564-2.453l0.050-0.103c0.29-0.613 0.635-1.211 0.869-1.85 0.177-0.43 0.295-0.928 0.331-1.449l0.001-0.015c0.003-0.074 0.005-0.16 0.005-0.247 0-0.571-0.083-1.123-0.237-1.644l0.010 0.041zM2.554 11.207l3.035-3.713c0.538-0.745 1.063-1.611 1.684-2.369 0.211-0.293 0.451-0.565 0.718-0.812 0.233-0.191 0.499-0.34 0.786-0.439 0.524-0.2 1.090-0.306 1.655-0.466 0.925-0.28 1.78-0.613 2.676-0.839 0.524-0.146 1.132-0.246 1.759-0.279l0.021-0.001c0 0 0.001 0 0.001 0 0.107 0 0.204-0.041 0.277-0.108l-0 0c0.072-0.066 0.118-0.16 0.122-0.264l0-0.001c-0.004-0.106-0.050-0.201-0.121-0.269l-0-0c-0.073-0.070-0.17-0.114-0.278-0.117h-0.001c-0.103-0.004-0.223-0.006-0.345-0.006-0.575 0-1.139 0.046-1.689 0.134l0.061-0.008c-0.938 0.133-1.835 0.36-2.759 0.533-0.617 0.088-1.23 0.208-1.835 0.359-0.492 0.156-0.919 0.388-1.291 0.685l0.008-0.006c-0.474 0.409-0.888 0.868-1.239 1.374l-0.016 0.024c-0.497 0.705-0.883 1.49-1.38 2.183s-0.552 1.051-0.925 1.57c-0.667 0.977-1.202 1.719-1.752 2.448l0.124-0.172c-0.057 0.071-0.091 0.162-0.091 0.261 0 0.019 0.001 0.038 0.004 0.057l-0-0.002c0.016 0.117 0.079 0.217 0.169 0.282l0.001 0.001c0.079 0.062 0.179 0.1 0.288 0.1 0.13 0 0.248-0.053 0.333-0.14l0-0z"></path>
</symbol>
<symbol id="icon-workplace-opt" viewBox="0 0 32 32">
<path fill="#036" d="M15.898 5.138c0 0 0 0 0 0 0.253 0 0.459-0.201 0.467-0.452l0-0.001c0.143-0.566 0.255-1.14 0.334-1.719 0.020-0.381 0.020-0.764 0-1.145-0.024-0.563-0.144-1.090-0.345-1.577l0.011 0.031c-0.049-0.161-0.196-0.276-0.37-0.276-0.030 0-0.059 0.003-0.086 0.010l0.003-0.001c-0.107 0-0.28 0.106-0.414 0.413-0.1 0.352-0.198 0.803-0.271 1.261l-0.009 0.071c-0.020 0.381-0.020 0.764 0 1.145 0 0.587 0.187 1.133 0.267 1.705-0.003 0.021-0.005 0.045-0.005 0.070 0 0.241 0.183 0.438 0.417 0.463l0.002 0zM8.009 8.336c0.083-0.084 0.133-0.199 0.133-0.326s-0.051-0.242-0.134-0.327l0 0c-0.412-0.64-0.852-1.198-1.339-1.71l0.004 0.005c-0.347-0.32-0.76-0.56-1.135-0.853l-1.068-0.533c-0.134-0.085-0.288-0.161-0.45-0.221l-0.017-0.006c-0.374 0-0.534 0.106-0.561 0.266-0.025 0.044-0.039 0.097-0.039 0.153s0.015 0.109 0.040 0.155l-0.001-0.002c0.389 0.485 0.782 0.92 1.199 1.33l0.002 0.002c0.347 0.306 0.668 0.64 1.042 0.92s1.148 0.732 1.695 1.159c0.082 0.071 0.189 0.114 0.307 0.114 0.124 0 0.237-0.049 0.321-0.128l-0 0zM5.073 15.73c-0.549-0.144-1.18-0.227-1.83-0.227-0.046 0-0.093 0-0.139 0.001l0.007-0c-0.367 0.002-0.733 0.037-1.095 0.107-0.489 0.136-0.99 0.225-1.495 0.267-0.032-0.009-0.069-0.014-0.107-0.014-0.228 0-0.413 0.185-0.413 0.413 0 0.018 0.001 0.037 0.004 0.054l-0-0.002c0.023 0.165 0.144 0.296 0.301 0.334l0.003 0.001c0.625 0.297 1.31 0.448 2.002 0.439 0.401-0.007 0.788-0.050 1.162-0.127l-0.040 0.007c0.574-0.107 1.081-0.293 1.562-0.333 0.009 0.001 0.019 0.001 0.030 0.001 0.247 0 0.45-0.186 0.478-0.425l0-0.002c0.001-0.009 0.001-0.019 0.001-0.029 0-0.244-0.188-0.444-0.426-0.464l-0.002-0zM28.218 4.006c-0.074-0.072-0.175-0.116-0.287-0.116s-0.213 0.044-0.287 0.116l0-0c-0.507 0.28-1.014 0.506-1.508 0.84-0.2 0.135-0.392 0.282-0.574 0.44l-0.508 0.506c-0.387 0.426-0.734 0.866-1.108 1.332-0.087 0.083-0.14 0.199-0.14 0.328 0 0.25 0.203 0.452 0.453 0.452 0.003 0 0.006-0 0.008-0h-0c0.119 0 0.234-0.045 0.32-0.127 0.507-0.293 0.988-0.56 1.468-0.893l0.587-0.426c0.186-0.155 0.36-0.324 0.52-0.506 0.387-0.426 0.695-0.893 1.055-1.332 0.088-0.074 0.143-0.184 0.143-0.306s-0.055-0.233-0.143-0.306l-0.001-0zM30.768 15.73c-0.16 0-0.307-0.066-0.468-0.080-0.222-0.020-0.445-0.020-0.667 0-0.587 0.080-1.108 0.28-1.682 0.414-0.222 0.039-0.388 0.23-0.389 0.46v0c0 0 0 0 0 0 0 0.23 0.167 0.421 0.386 0.459l0.003 0c0.576 0.122 1.16 0.198 1.748 0.227 0.244-0.004 0.478-0.038 0.701-0.098l-0.020 0.005c0.155-0.037 0.307-0.085 0.454-0.146 0.34-0.091 0.638-0.214 0.914-0.37l-0.019 0.010c0.174-0.16 0.293-0.28 0.267-0.426 0.040-0.413-0.534-0.333-1.228-0.453z"></path>
<path fill="#343434" d="M20.023 8.003c-1.202-0.643-2.63-1.021-4.146-1.021-0.741 0-1.461 0.090-2.149 0.26l0.061-0.013c-1.67 0.479-3.096 1.359-4.22 2.532l-0.003 0.003c-1.12 1.168-1.94 2.632-2.331 4.263l-0.013 0.064c-0.118 0.521-0.185 1.118-0.185 1.732s0.067 1.211 0.195 1.787l-0.010-0.055c0.249 1.194 0.713 2.249 1.354 3.173l-0.019-0.028c0.193 0.273 0.412 0.528 0.653 0.759 0.457 0.425 0.974 0.78 1.535 1.052 0.050 0.192 0.077 0.388 0.080 0.586v1.813c-0.355 0.262-0.621 0.627-0.756 1.050l-0.004 0.015c-0.074 0.227-0.116 0.488-0.116 0.759 0 0.151 0.013 0.299 0.038 0.442l-0.002-0.015c0.040 0.324 0.164 0.632 0.36 0.893 0.138 0.166 0.3 0.309 0.481 0.426-0.295 0.363-0.482 0.824-0.507 1.327l-0 0.006c-0.009 0.066-0.014 0.142-0.014 0.22 0 0.485 0.194 0.925 0.508 1.246l-0-0c0.336 0.305 0.758 0.522 1.226 0.611l0.016 0.003c0.604 0.1 1.217 0.131 1.829 0.093 0.493 0.002 0.985-0.047 1.469-0.146 0.084-0.078 0.136-0.189 0.136-0.312 0-0.017-0.001-0.033-0.003-0.050l0 0.002c-0.017-0.138-0.098-0.253-0.211-0.318l-0.002-0.001c-0.088-0.008-0.19-0.012-0.294-0.012s-0.206 0.005-0.307 0.013l0.013-0.001h-0.801c-0.549-0.002-1.084-0.060-1.6-0.169l0.051 0.009c-0.28-0.072-0.52-0.216-0.707-0.412l-0.001-0.001c-0.089-0.113-0.142-0.258-0.142-0.415 0-0.061 0.008-0.12 0.023-0.176l-0.001 0.005c0.056-0.577 0.473-1.042 1.019-1.171l0.009-0.002c0.4 0 1.175 0.2 2.095 0.267 0.342 0.020 0.685 0.020 1.028 0h0.907c0.715-0.119 1.424-0.275 2.122-0.466l0.36-0.093c0.015 0.093 0.015 0.187 0 0.28 0.005 0.322-0.049 0.642-0.16 0.945-0.235 0.42-0.6 0.752-1.041 0.946-0.268 0.201-0.605 0.321-0.971 0.321-0.129 0-0.254-0.015-0.375-0.043l0.011 0.002c-0.059-0.028-0.128-0.044-0.201-0.044-0.184 0-0.344 0.103-0.425 0.254l-0.001 0.003c-0.028 0.058-0.044 0.125-0.044 0.197 0 0.181 0.103 0.338 0.254 0.415l0.003 0.001c0.26 0.097 0.56 0.152 0.874 0.152 0.48 0 0.929-0.131 1.314-0.359l-0.012 0.007c0.741-0.271 1.344-0.77 1.741-1.41l0.008-0.015c0.198-0.428 0.314-0.929 0.314-1.457 0-0.078-0.003-0.156-0.008-0.232l0.001 0.010c-0.016-0.388-0.159-0.739-0.39-1.015l0.002 0.003c0.192-0.162 0.355-0.355 0.481-0.573 0.101-0.183 0.161-0.401 0.161-0.633 0-0.068-0.005-0.135-0.015-0.2l0.001 0.007c-0.084-0.608-0.427-1.122-0.913-1.434l-0.008-0.005c0-0.44-0.093-0.933-0.080-1.413-0.006-0.052-0.010-0.112-0.010-0.173s0.004-0.121 0.011-0.18l-0.001 0.007c0.311-0.103 0.58-0.243 0.823-0.419l-0.009 0.006c0.441-0.32 0.895-0.64 1.335-1 0.296-0.258 0.562-0.533 0.805-0.828l0.010-0.012c0.799-1.054 1.39-2.313 1.684-3.681l0.011-0.062c0.163-0.626 0.256-1.345 0.256-2.085s-0.093-1.459-0.269-2.145l0.013 0.060c-0.364-1.082-0.915-2.015-1.621-2.806l0.007 0.008c-0.713-0.799-1.574-1.45-2.542-1.911l-0.048-0.021zM16.539 27.482h-1.936c-0.431 0.055-0.929 0.086-1.435 0.086s-1.004-0.031-1.493-0.092l0.059 0.006c-0.107 0-0.174-0.134-0.24-0.213-0.007-0.036-0.011-0.078-0.011-0.12s0.004-0.084 0.012-0.124l-0.001 0.004c-0.020-0.080-0.031-0.172-0.031-0.267s0.011-0.186 0.032-0.274l-0.002 0.008c0.049-0.13 0.137-0.242 0.254-0.32 0.271-0.17 0.592-0.288 0.936-0.332l0.012-0.001c0.629-0.092 1.261-0.15 1.896-0.173 1.115-0.155 2.244-0.177 3.364-0.067 0.28 0 1.241 0.453 1.174 0.919-0.132 0.562-0.587 0.989-1.154 1.078l-0.008 0.001c-0.413 0-0.894-0.093-1.428-0.12zM22.973 16.663c-0.216 1.253-0.684 2.367-1.353 3.331l0.018-0.027c-0.195 0.256-0.409 0.496-0.64 0.72-0.38 0.345-0.78 0.666-1.201 0.959-0.134 0.107-0.681 0.28-0.868 0.44-0.107 0.078-0.187 0.187-0.225 0.315l-0.001 0.004c-0.071 0.208-0.113 0.447-0.113 0.696 0 0.055 0.002 0.11 0.006 0.164l-0-0.007c0.008 0.321 0.034 0.642 0.080 0.959-0.74-0.144-1.59-0.226-2.46-0.226-0.596 0-1.183 0.039-1.759 0.114l0.068-0.007c-0.758 0.028-1.476 0.104-2.177 0.227l0.095-0.014c-0.232 0.050-0.459 0.117-0.681 0.2v-0.12c0-0.373 0.080-1.012 0.067-1.546 0-0.288-0.059-0.575-0.174-0.84-0.076-0.128-0.174-0.235-0.29-0.318l-0.003-0.002c-0.267-0.146-0.681-0.36-0.761-0.36-0.228-0.166-0.428-0.341-0.613-0.532l-0.001-0.001c-0.18-0.19-0.343-0.399-0.484-0.623l-0.010-0.017c-0.513-0.809-0.883-1.761-1.049-2.781l-0.006-0.043c-0.061-0.348-0.095-0.749-0.095-1.158 0-0.635 0.083-1.25 0.24-1.836l-0.011 0.050c0.401-1.412 1.132-2.621 2.108-3.583l0.001-0.001c0.95-0.972 2.15-1.695 3.496-2.066l0.055-0.013c0.525-0.131 1.127-0.207 1.746-0.207 1.243 0 2.416 0.303 3.448 0.839l-0.042-0.020c1.614 0.745 2.849 2.081 3.443 3.725l0.014 0.045c0.183 0.614 0.288 1.32 0.288 2.050 0 0.534-0.056 1.054-0.163 1.556l0.009-0.049z"></path>
<path fill="#343434" d="M19.663 13.213c-0.199-0.44-0.45-0.818-0.751-1.15l0.003 0.004c-0.232-0.226-0.495-0.421-0.782-0.577l-0.019-0.009c-0.284-0.171-0.618-0.29-0.976-0.332l-0.012-0.001c-0.12-0.024-0.259-0.038-0.401-0.038s-0.28 0.014-0.414 0.040l0.014-0.002c-0.32 0.146-0.467 0.346-0.347 0.626s0.641 0.173 0.921 0.293c0.19 0.080 0.36 0.204 0.494 0.36 0.149 0.161 0.283 0.335 0.4 0.52 0.213 0.32 0.388 0.665 0.521 1.026 0.165 0.368 0.294 0.752 0.387 1.146 0.060 0.238 0.094 0.511 0.094 0.793s-0.034 0.555-0.099 0.816l0.005-0.023c-0.019 0.049-0.031 0.106-0.031 0.166 0 0.197 0.122 0.365 0.294 0.433l0.003 0.001c0.047 0.017 0.101 0.026 0.157 0.026 0.198 0 0.368-0.119 0.442-0.29l0.001-0.003c0.273-0.567 0.433-1.233 0.433-1.936 0-0.257-0.021-0.509-0.062-0.755l0.004 0.027c-0.046-0.428-0.145-0.821-0.291-1.189l0.011 0.030z"></path>
</symbol>
<symbol id="icon-education-opt" viewBox="0 0 33 32">
<path fill="#343434" d="M19.837 3.014c-2.441 0.139-4.722 0.482-6.93 1.014l0.264-0.054c-0.334 0-2.76 0.36-3.040 0.48-0.167 0.039-0.29 0.187-0.29 0.364 0 0.046 0.008 0.091 0.024 0.132l-0.001-0.003c0.173 0.507 4.373 0 10.173-0.466 1.733-0.226 2.933-0.587 4.56-0.906 0.952-0.14 1.801-0.354 2.616-0.643l-0.096 0.030c0.030-0.056 0.048-0.123 0.048-0.194 0-0.169-0.101-0.314-0.246-0.378l-0.003-0.001c-0.24-0.253-0.506-0.107-7.080 0.627z"></path>
<path fill="#343434" d="M28.837 21.334v-15.48c0-0.133 0.2-0.667-0.387-0.667-0.12 0-2.2 0.413-2.334 0.44l-4.36 0.347c-2.773 0.266-5.56 0.36-8.333 0.546-3.774 0.266-4 0.506-5.547 0.306-0.573-0.080-1.147-0.146-1.333-0.493-0.050-0.127-0.079-0.274-0.079-0.428 0-0.361 0.159-0.684 0.411-0.904l0.001-0.001c1.373-1.68 4.187-2.333 6.307-2.853 4.893-1.187 6.573-0.747 10.013-0.973 1.96-0.133 3.2-0.267 3.067-0.867-0.034-0.181-0.191-0.317-0.379-0.317-0.031 0-0.061 0.004-0.090 0.011l0.003-0.001c-4.76 1.026-7.293-1.014-16.68 1.853-4.867 1.547-6.2 6.667 0.014 6.533-0.545 3.843-0.856 8.281-0.856 12.792 0 2.466 0.093 4.911 0.276 7.33l-0.020-0.322c0 1.080 0 1.733 0.4 1.867 0.787 0.227 0.627-1 0.587-1.867 0-7.787 0.36-5.186 0.373-14.666 0-5.787 0-5.24 0.133-5.253 4.28-0.613 13.333-1.133 17.853-2.066-0.4 26.666-0.146 10.733-0.093 17.986 0.014 0.371-0.013 0.742-0.080 1.107-0.16 1-11.373 3.933-13.827 4.533-3.133 0.787-5.546 1.014-8.507-0.346-1.333-2.773-0.827-17.267-0.574-20 0.001-0.012 0.002-0.026 0.002-0.040 0-0.215-0.174-0.389-0.389-0.389-0.2 0-0.366 0.152-0.386 0.347l-0 0.002c-0.333 2.747-1.2 16.787-0.107 20.2 0.293 0.933 0.694 1.12 1.52 1.466 1.322 0.617 2.87 0.978 4.502 0.978 0.344 0 0.685-0.016 1.021-0.047l-0.043 0.003c5.041-0.85 9.522-2.12 13.789-3.813l-0.455 0.159c1.363-0.365 2.503-0.761 3.606-1.227l-0.18 0.067c2.253-1.213 1.187-3.48 1.16-5.853z"></path>
<path fill="#036" d="M13.584 17.613c0.84 0.227 1.72 0 7.587-1.027 0.88-0.16 2.24-0.24 2.666-1.080 0.252-0.793 0.302-1.636 0.147-2.453 0-0.64 0.76-3.493-0.854-3.427-0.080 0-9.627 1.493-10.226 1.507-0.243 0-0.44 0.197-0.44 0.44v0c0 0.347 0.12-0.36 0 1.787 0.107 1.493-0.627 3.746 1.12 4.254zM13.463 12c1.013 0-1.733 0.080 9.586-0.893-0.306 4.387-0.107 3.614-2.093 4-6.546 1.334-7.013 1.627-7.293 1.334s-0.080-2.306-0.174-3.107c0-0.080-0.040-0.867-0.027-1.334zM22.623 20c0.043-0.074 0.069-0.163 0.069-0.258 0-0.287-0.233-0.52-0.52-0.52-0.024 0-0.048 0.002-0.071 0.005l0.003-0c-0.387 0-1.334 0.107-1.573 0.107-0.127-0.003-0.276-0.004-0.426-0.004-2.023 0-3.985 0.259-5.855 0.746l0.161-0.036c-0.826-0.093-0.64 0.494-0.213 0.706 1.067 0.907 8.147-0.44 8.427-0.747zM14.396 26.053c0.009 0 0.019 0 0.029 0 0.311 0 0.614-0.034 0.905-0.099l-0.028 0.005c1.098-0.026 2.149-0.118 3.179-0.27l-0.139 0.017c1.587-0.267 3.067-0.826 4.493-0.947 0.215-0.038 0.376-0.224 0.376-0.447s-0.161-0.408-0.373-0.446l-0.003-0c-3.627-0.306-8.586 1.334-8.693 1.64s0.066 0.454 0.253 0.547z"></path>
</symbol>
</defs>
</svg>
